<?xml version="1.0" encoding="utf-8"?>
<!-- Generator: Adobe Illustrator 18.1.0, SVG Export Plug-In . SVG Version: 6.00 Build 0)  -->
<svg version="1.1" id="Icon" xmlns="http://www.w3.org/2000/svg" xmlns:xlink="http://www.w3.org/1999/xlink" x="0px" y="0px"
	 viewBox="296 386 20 20" enable-background="new 296 386 20 20" xml:space="preserve">
<path fill="#FFFFFF" d="M316,403.4c0,1.4-1.1,2.5-2.5,2.5h-15c-1.4,0-2.5-1.1-2.5-2.5v-15c0-1.4,1.1-2.5,2.5-2.5h15
	c1.4,0,2.5,1.1,2.5,2.5V403.4z"/>
<path fill="#EDEDEE" d="M304,390.8c0,0,4.3,4.4,4.8,4.8h3.5c0,0.9,0,1.9,0,2.8c0,0.6-0.3,0.9-0.8,1.1h-2.3c0,0,0,3.4,0,3.4
	c-1-1-2.2-2.1-3.2-3.2c-0.1-0.1-0.2-0.2-0.3-0.3c-0.7,0-4.3,0-4.8,0c-0.6,0-0.8-0.5-0.8-1c0-1.2,0-2.4,0-3.6c0-0.2,0.2-0.3,0.3-0.4
	C300.3,394.3,304,390.8,304,390.8z"/>
<path fill="#EDEDEE" d="M309.4,388.7c0.6,0.6,5.5,5.4,5.6,5.5c0.2,0.2,0,0.3-0.3,0.3c-1.7,0-3.5,0-5.2,0c-0.3,0-0.6-0.1-0.8-0.3
	c-0.2-0.3-4.3-4.3-4.8-4.7c-0.1-0.1-0.2-0.2-0.4,0c-0.4,0.4-0.8,0.9-1.3,1.3c-0.9,0.8-3.3,3.2-3.6,3.6c-0.1,0.1-0.2,0.2-0.4,0.2
	c-0.5,0-1.1,0-1.5,0l5.8-5.8c0.2-0.2,0.4-0.3,0.7-0.3h5.4C309,388.5,309.2,388.5,309.4,388.7z"/>
<path fill="#5D6F79" d="M304,391.4c0,0,4.3,4.4,4.8,4.8h3.5c0,0.9,0,1.9,0,2.8c0,0.6-0.3,0.9-0.8,1.1h-2.3c0,0,0,3.4,0,3.4
	c-1-1-2.2-2.1-3.2-3.2c-0.1-0.1-0.2-0.2-0.3-0.3c-0.7,0-4.3,0-4.8,0c-0.6,0-0.8-0.5-0.8-1c0-1.2,0-2.4,0-3.6c0-0.2,0.2-0.3,0.3-0.4
	C300.3,394.9,304,391.4,304,391.4z"/>
<path fill="#F78F1F" d="M309.4,389.3c0.6,0.6,5.5,5.4,5.6,5.5c0.2,0.2,0,0.3-0.3,0.3c-1.7,0-3.5,0-5.2,0c-0.3,0-0.6-0.1-0.8-0.3
	c-0.2-0.3-4.3-4.3-4.8-4.7c-0.1-0.1-0.2-0.2-0.4,0c-0.4,0.4-0.8,0.9-1.3,1.3c-0.9,0.8-3.3,3.2-3.6,3.6c-0.1,0.1-0.2,0.2-0.4,0.2
	c-0.5,0-1.1,0-1.5,0l5.8-5.8c0.2-0.2,0.4-0.3,0.7-0.3h5.4C309,389.1,309.2,389.1,309.4,389.3z"/>
</svg>
