<?xml version="1.0" encoding="utf-8"?>
<!-- Generator: Adobe Illustrator 17.1.0, SVG Export Plug-In . SVG Version: 6.00 Build 0)  -->
<!DOCTYPE svg PUBLIC "-//W3C//DTD SVG 1.1//EN" "http://www.w3.org/Graphics/SVG/1.1/DTD/svg11.dtd">
<svg version="1.1" id="Icon" xmlns="http://www.w3.org/2000/svg" xmlns:xlink="http://www.w3.org/1999/xlink" x="0px" y="0px"
	 viewBox="0 0 936 936" style="enable-background:new 0 0 936 936;" xml:space="preserve">
<g>
	<path style="fill:#231F20;" d="M497.1,287.8c0,37.4-0.4,74.9,0.2,112.3c0.2,14.9-3.4,28.9-19.3,29.2c-10.7,0.2-25.3-6-31.7-14.3
		c-26.4-33.8-50.4-69.5-75.3-104.4c-16.9-23.7-33.5-47.5-50.9-70.8c-23.2-31-17.5-50.6,20.1-61.9c35.6-10.7,71.5-20.6,107.6-29.8
		c30-7.7,48,6.4,48.2,36.9c0.2,34.2,0,68.4,0,102.7C496.4,287.8,496.8,287.8,497.1,287.8z"/>
	<path style="fill:#231F20;" d="M230.5,517.5c3.5-25.7,5.5-46.8,9.6-67.5c4.3-21.3,24.6-30,44.6-21.7
		c43.7,17.9,88.1,34.1,131.1,53.4c10.5,4.7,20.1,17.5,24.1,28.7c5.1,14.2-6,23.5-19.4,28c-27.5,9.2-55,18.3-82.6,27.3
		c-20.9,6.8-42.1,13-62.9,20.3c-14.1,5-32-1.8-35.4-16.1C235.3,551.2,233,532,230.5,517.5z"/>
	<path style="fill:#231F20;" d="M760.8,634.1c-4.1,8.2-9.3,24.5-19.3,36.7c-17.2,21-36.7,40.2-56.6,58.8
		c-13.5,12.6-30.5,10.5-40.2-4.7c-27.9-43.7-54.3-88.4-82.2-132.1c-8.1-12.7-4.2-24.1,3.9-31.1c7.6-6.5,21.8-12.3,30.4-9.7
		c50.2,15.4,99.7,33.2,149.3,50.8C761.6,608.4,761.7,610,760.8,634.1z"/>
	<path style="fill:#231F20;" d="M575.8,489.6c-5.8-4.6-18.4-10.2-23-19.7c-3.4-7.1,1.4-20.9,6.9-28.7
		c25.5-36.5,51.7-72.6,79.1-107.7c26-33.2,35.8-34,63.1-3.7c22,24.4,37.8,54.8,54.3,83.6c10.5,18.2,2.6,30.8-18.2,36.5
		c-33.7,9.2-67,19.7-100.8,28.5C619.4,483,601,485.2,575.8,489.6z"/>
	<path style="fill:#231F20;" d="M496.3,686.7c0,25.2,0.2,50.4-0.1,75.6c-0.2,18.2-12.4,30.1-30.3,27c-36.5-6.4-72.6-14.4-104.5-35.5
		c-24.5-16.1-28.5-32.9-9.9-54.2c29.9-34.2,60-68.4,90.5-102.1c10.6-11.8,22.2-20,40.3-10.6c10.6,5.5,14.1,11.7,14,22.3
		C496.3,635,496.4,660.9,496.3,686.7C496.4,686.7,496.3,686.7,496.3,686.7z"/>
</g>
</svg>
